<?xml version="1.0" encoding="utf-8"?>
<!-- Generator: Adobe Illustrator 18.1.1, SVG Export Plug-In . SVG Version: 6.00 Build 0)  -->
<svg version="1.1" id="Capa_1" xmlns="http://www.w3.org/2000/svg" xmlns:xlink="http://www.w3.org/1999/xlink" x="0px" y="0px"
	 viewBox="-295 386.5 20.5 20.5" enable-background="new -295 386.5 20.5 20.5" xml:space="preserve">
<g>
	<g>
		<path fill="#FFFFFF" d="M-278.8,395.1h-0.9c-0.2,0-0.4,0-0.5,0.1v-2.1c0-0.1,0-0.2,0-0.3c0.6-0.4,1-1.1,1-1.9
			c0-1.5-1.4-2.7-2.9-2.4c-0.5-0.5-1.2-0.8-1.9-0.8c-0.5-0.7-1.2-1.1-2.1-1.1c-0.7,0-1.3,0.3-1.8,0.7c-0.1-0.1-0.3-0.1-0.4-0.1
			l-0.2,0c-0.1,0-0.3,0-0.4,0c-0.2,0-0.4,0-0.5,0h0v0c-1.1,0.1-2,0.7-2.3,1.6c-1.1,0.2-1.9,1.1-1.9,2.2c0,0.8,0.4,1.5,1,1.9
			c0,0.1,0,0.2,0,0.3v12.3c0,0.9,0.7,1.6,1.6,1.6h9.2c0.9,0,1.6-0.7,1.6-1.6v-2.5c0.2,0,0.4,0.1,0.5,0.1h0.9c1.7,0,3-1.4,3-3v-1.8
			C-275.8,396.4-277.1,395.1-278.8,395.1z M-281.4,405.4c0,0.3-0.2,0.5-0.5,0.5h-9.2c-0.3,0-0.5-0.2-0.5-0.5v-12.3
			c0-0.3,0.2-0.5,0.5-0.5h9.2c0.3,0,0.5,0.2,0.5,0.5C-281.4,393.1-281.4,405.4-281.4,405.4z M-280.9,391.8L-280.9,391.8
			c-0.3-0.2-0.6-0.4-1-0.4h-9.2c-0.4,0-0.8,0.2-1.1,0.4c-0.3-0.2-0.4-0.5-0.4-0.9c0-0.7,0.5-1.2,1.2-1.2l0.4,0l0.1-0.4
			c0.1-0.5,0.6-1.1,1.5-1.2h0.6c0.2,0,0.5,0.1,0.7,0.2l0.5,0.3l0.3-0.4c0.3-0.4,0.7-0.6,1.2-0.6c0.6,0,1,0.3,1.3,0.8l0.2,0.4
			l0.4-0.1c0.6-0.1,1.2,0.1,1.5,0.6l0.2,0.4l0.4-0.1c0.2-0.1,0.3-0.1,0.5-0.1c0.7,0,1.3,0.6,1.3,1.3
			C-280.4,391.2-280.6,391.5-280.9,391.8z M-277.4,399.9c0,0.8-0.6,1.4-1.4,1.4h-0.9c-0.2,0-0.4,0-0.5-0.1v-4.3
			c0.2-0.1,0.4-0.1,0.5-0.1h0.9c0.8,0,1.4,0.6,1.4,1.4V399.9z"/>
		<rect x="-291.1" y="394.5" fill="#FFFFFF" width="9.2" height="10.9"/>
	</g>
</g>
</svg>
